<svg version="1" xmlns="http://www.w3.org/2000/svg" width="346.667" height="346.667" viewBox="0 0 260.000000 260.000000"><path d="M0 130v130h260V0H0v130zM77 22.6c7 3.3 13 7.8 13 9.7 0 .7-2.9 4.9-6.4 9.4-6.2 8-6.4 8.2-8.1 6.3-6.1-6.7-20.9-9.2-27.6-4.7-4.7 3.1-7.9 9.8-7.9 16.4 0 10.5 3.9 15.1 21 24.3 5.6 3 12.6 7.7 15.5 10.3 13.8 12.2 17.2 33.6 8.4 51.6-6 12.1-16.2 19.4-30.3 21.4-13.5 1.9-29.5-2.8-39.3-11.7l-4.7-4.3 5.8-7.9c3.2-4.4 6.2-8.3 6.7-8.8.4-.5 2.4.5 4.5 2.4 8.7 7.6 21.6 10.3 29.4 6.2 5.2-2.8 8.5-9.3 8.4-16.7 0-11.1-4.5-16.2-23.6-26.5C30.7 94 22.1 85.5 19 77.5c-3-7.7-3.4-23-.8-31.5C21.7 34.7 32.1 24 43 20.5c3.1-1 8.1-1.4 16-1.2 10.5.2 12.1.5 18 3.3zm47.4 2.1c.3 1.6 4.4 26.2 9.1 54.8 4.8 28.5 8.7 52 8.9 52.2.1.1 4.5-24.4 9.7-54.5l9.4-54.7 12.6-.3c9.6-.2 12.8.1 13.1 1 .3.7 4.7 25.1 9.9 54.1 5.5 31.2 9.6 52.1 10.1 51 .4-1 4.3-24.3 8.8-51.8 4.5-27.5 8.4-51 8.7-52.3.5-2.2.8-2.3 12.2-2 7 .2 11.5.7 11.5 1.3-.1.5-6.2 32.4-13.5 70.7L221.5 164h-14.2c-7.9 0-14.3-.3-14.3-.8 0-1.8-18.1-99.9-18.8-101.5-.5-1.1-4.4 18.3-10.3 50l-9.5 51.8-14.1.3-14.1.3-1.1-5.3c-.6-2.9-6.5-33.9-13.1-68.8-6.7-34.9-12.4-64.5-12.7-65.8-.5-2.2-.5-2.2 12-2.2h12.5l.6 2.7zm-11.8 177.8c4.6 18.7 8.4 34.6 8.4 35.3 0 1-1.6 1.2-6.2 1l-6.3-.3-1.5-7-1.5-7-9.2-.3-9.2-.3-1 3.8c-.5 2.1-1.4 5.4-1.8 7.3-.9 3.5-.9 3.5-7.2 3.8-5.6.3-6.2.1-5.7-1.5.3-1 4.2-16.4 8.6-34.3 4.4-17.9 8.3-33.1 8.5-33.8.3-.9 2.6-1.2 8.2-1l7.6.3 8.3 34zm41.9-33.4c5.3 1.5 11 7.3 12.5 12.9 2.8 10.2-1.5 22.3-9.3 26.3-2.3 1.2-6.7 2.2-10.8 2.5l-6.9.5V239h-12v-71h11.3c6.1 0 13 .5 15.2 1.1zm35.5 34.4V239h-12v-71h12v35.5z"/><path d="M95.7 182c-.7 1.8-6.7 29.6-6.7 31 0 .6 3.2 1 7.3 1h7.4l-3.3-15.3c-4.3-19.9-4-18.5-4.7-16.7zM140 190v11h3.5c4.6 0 10.1-2.3 11.4-4.8.6-1.2 1.1-4.4 1.1-7.2 0-7.3-2.9-10-10.5-10H140v11z"/></svg>